<svg xmlns="http://www.w3.org/2000/svg" xmlns:xlink="http://www.w3.org/1999/xlink" viewBox="0 0 18 18"><defs><path id="france_svg__a" d="M2.16 0A2.16 2.16 0 0 0 0 2.16v13.68A2.16 2.16 0 0 0 2.16 18h13.68A2.16 2.16 0 0 0 18 15.84V2.16A2.16 2.16 0 0 0 15.84 0z"/></defs><g fill="none" fill-rule="evenodd"><mask id="france_svg__b" fill="#fff"><use xlink:href="#france_svg__a"/></mask><path fill="#3E28FF" d="M0 18h6V0H0z" mask="url(#france_svg__b)"/><path fill="#FFF" d="M6 18h6V0H6z" mask="url(#france_svg__b)"/><path fill="#D71700" d="M12 18h6V0h-6z" mask="url(#france_svg__b)"/><path stroke="#5E646A" stroke-width="0.5" d="M15.84 18H2.16A2.16 2.16 0 0 1 0 15.84V2.16A2.16 2.16 0 0 1 2.16 0h13.68A2.16 2.16 0 0 1 18 2.16v13.68A2.16 2.16 0 0 1 15.84 18z" mask="url(#france_svg__b)"/></g></svg>